<?xml version="1.0" standalone="no"?>
<!DOCTYPE svg PUBLIC "-//W3C//DTD SVG 20010904//EN"
 "http://www.w3.org/TR/2001/REC-SVG-20010904/DTD/svg10.dtd">
<svg version="1.0" xmlns="http://www.w3.org/2000/svg"
 width="559.000000pt" height="447.000000pt" viewBox="0 0 559.000000 447.000000"
 preserveAspectRatio="xMidYMid meet">

<g transform="translate(0.000000,447.000000) scale(0.100000,-0.100000)"
fill="#000000" stroke="none">
<path d="M3053 2996 c-32 -35 -103 -136 -158 -224 -55 -89 -101 -159 -103
-158 -1 2 3 45 9 95 10 79 10 95 -3 107 -8 8 -22 12 -31 8 -16 -6 -134 -148
-173 -208 -28 -44 -27 -20 5 79 29 90 30 105 8 105 -19 0 -131 -361 -115 -371
7 -4 16 -5 20 -3 5 3 49 65 97 137 49 73 105 150 124 172 43 48 44 46 18 -109
-31 -180 -7 -182 96 -11 132 221 253 395 273 395 40 0 -21 -308 -156 -778 -49
-170 -53 -195 -27 -190 18 3 26 25 115 353 107 393 144 596 119 643 -21 39
-54 28 -118 -42z"/>
<path d="M2334 1788 c3 -13 6 -63 6 -111 0 -79 2 -88 18 -85 15 3 17 14 14 76
-2 40 0 72 5 72 5 0 23 -27 42 -61 l33 -61 19 29 c10 15 19 33 19 38 0 6 9 21
20 35 l20 25 0 -77 c0 -71 2 -78 20 -78 19 0 20 7 20 110 l0 110 -25 0 c-20 0
-30 -11 -55 -60 -17 -33 -34 -60 -38 -59 -4 0 -20 27 -35 60 -26 53 -31 59
-59 59 -27 0 -30 -3 -24 -22z"/>
<path d="M2757 1804 c-11 -12 3 -24 29 -24 24 0 24 -1 24 -95 0 -88 1 -95 20
-95 19 0 20 7 20 94 l0 95 27 3 c14 2 28 9 31 16 3 9 -16 12 -70 12 -41 0 -78
-3 -81 -6z"/>
<path d="M3094 1798 c-4 -6 -2 -14 4 -16 8 -2 12 -35 12 -98 0 -75 3 -94 14
-94 10 0 16 14 18 43 l3 42 46 -42 c42 -39 79 -55 79 -35 0 4 -20 28 -45 52
-25 24 -45 47 -45 51 0 3 18 27 40 52 22 25 40 48 40 51 0 19 -40 0 -77 -36
l-43 -42 0 42 c0 35 -3 42 -19 42 -11 0 -23 -5 -27 -12z"/>
</g>
</svg>
